<?xml version="1.0" encoding="UTF-8" standalone="no"?>
<svg
	xmlns="http://www.w3.org/2000/svg"
	width="48"
	height="48"
	viewBox="0 0 48 48">
	<path
		d="M 16,40 H 32 V 34 Q 32,30.7 29.65,28.35 27.3,26 24,26 20.7,26 18.35,28.35 16,30.7 16,34 Z m -8,4 v -4 h 4 V 34 Q 12,30.95 13.425,28.275 14.85,25.6 17.4,24 14.85,22.4 13.425,19.725 12,17.05 12,14 V 8 H 8 V 4 h 32 v 4 h -4 v 6 q 0,3.05 -1.425,5.725 Q 33.15,22.4 30.6,24 33.15,25.6 34.575,28.275 36,30.95 36,34 v 6 h 4 v 4 z"
		style="fill:#303030" />
</svg>